<?xml version="1.0" encoding="UTF-8"?>
<svg version="1.1" xmlns="http://www.w3.org/2000/svg" width="300" height="200">
<path d="M0 0 C99 0 198 0 300 0 C300 66 300 132 300 200 C201 200 102 200 0 200 C0 134 0 68 0 0 Z " fill="#FDFCFC" transform="translate(0,0)"/>
<path d="M0 0 C0.73541016 0.00064453 1.47082031 0.00128906 2.22851562 0.00195312 C7.52901786 0.04575893 7.52901786 0.04575893 9.8125 1.1875 C9.52510393 4.4207058 9.2409095 5.8089626 6.765625 7.99609375 C-3.04901248 13.91040564 -12.79340059 19.25629671 -24.1875 21.1875 C-22.62518306 18.06286612 -19.49957049 17.64595569 -16.375 16.5 C-10.01406405 14.07914932 -4.37495608 11.19285192 1.421875 7.60546875 C3.8125 6.1875 3.8125 6.1875 6.8125 5.1875 C6.8125 4.1975 6.8125 3.2075 6.8125 2.1875 C-1.00994758 1.72228836 -8.32625941 2.71837817 -15.99169922 4.12036133 C-19.47281735 4.75483413 -22.6351503 5.1875 -26.1875 5.1875 C-26.5175 6.1775 -26.8475 7.1675 -27.1875 8.1875 C-27.785625 8.290625 -28.38375 8.39375 -29 8.5 C-32.48135002 9.59413858 -33.39361396 12.12053355 -35.1875 15.1875 C-35.703125 16.26 -36.21875 17.3325 -36.75 18.4375 C-38.1875 21.1875 -38.1875 21.1875 -41.1875 23.1875 C-38.5475 23.5175 -35.9075 23.8475 -33.1875 24.1875 C-34.1875 27.1875 -34.1875 27.1875 -36.25 28.375 C-36.889375 28.643125 -37.52875 28.91125 -38.1875 29.1875 C-37.8575 27.8675 -37.5275 26.5475 -37.1875 25.1875 C-38.5075 25.8475 -39.8275 26.5075 -41.1875 27.1875 C-41.1875 26.5275 -41.1875 25.8675 -41.1875 25.1875 C-42.60541408 25.64195964 -44.02178046 26.10124944 -45.4375 26.5625 C-46.22640625 26.81773438 -47.0153125 27.07296875 -47.828125 27.3359375 C-48.60671875 27.61695312 -49.3853125 27.89796875 -50.1875 28.1875 C-50.9196875 28.435 -51.651875 28.6825 -52.40625 28.9375 C-54.44995969 30.10328708 -54.44995969 30.10328708 -55.015625 32.7890625 C-55.15484375 33.78679687 -55.2940625 34.78453125 -55.4375 35.8125 C-55.685 37.58625 -55.9325 39.36 -56.1875 41.1875 C-51.8975 41.1875 -47.6075 41.1875 -43.1875 41.1875 C-43.1875 41.8475 -43.1875 42.5075 -43.1875 43.1875 C-48.4675 43.1875 -53.7475 43.1875 -59.1875 43.1875 C-59.75984375 45.01861328 -59.75984375 45.01861328 -60.34375 46.88671875 C-62.41295644 53.08826644 -65.04529831 59.02526011 -67.6875 65 C-68.17347656 66.11826172 -68.65945312 67.23652344 -69.16015625 68.38867188 C-69.63324219 69.46310547 -70.10632813 70.53753906 -70.59375 71.64453125 C-71.01978516 72.61366455 -71.44582031 73.58279785 -71.88476562 74.58129883 C-73.12212909 77.05672142 -74.35447567 79.11555844 -76.1875 81.1875 C-76.8475 81.1875 -77.5075 81.1875 -78.1875 81.1875 C-77.7068058 74.17599488 -75.55603703 68.49592069 -72.8125 62.0625 C-72.41289063 61.09957031 -72.01328125 60.13664062 -71.6015625 59.14453125 C-69.61900785 54.40335615 -67.56533841 49.74374522 -65.1875 45.1875 C-64.5275 45.1875 -63.8675 45.1875 -63.1875 45.1875 C-62.6925 44.1975 -62.6925 44.1975 -62.1875 43.1875 C-65.1575 43.1875 -68.1275 43.1875 -71.1875 43.1875 C-71.1875 42.8575 -71.1875 42.5275 -71.1875 42.1875 C-66.2375 41.6925 -66.2375 41.6925 -61.1875 41.1875 C-59.2075 35.5775 -57.2275 29.9675 -55.1875 24.1875 C-56.239375 25.115625 -57.29125 26.04375 -58.375 27 C-61.16945185 29.38716332 -63.86051272 31.57153475 -67.1875 33.1875 C-68.1775 32.6925 -68.1775 32.6925 -69.1875 32.1875 C-70.51610925 31.83580932 -71.84908328 31.49979724 -73.1875 31.1875 C-72.6925 29.7025 -72.6925 29.7025 -72.1875 28.1875 C-72.8475 28.1875 -73.5075 28.1875 -74.1875 28.1875 C-74.1875 25.8775 -74.1875 23.5675 -74.1875 21.1875 C-82.10713465 23.10354064 -88.88550268 26.39638621 -96.02880859 30.22631836 C-96.7811377 30.62085205 -97.5334668 31.01538574 -98.30859375 31.421875 C-99.32070923 31.96666504 -99.32070923 31.96666504 -100.35327148 32.52246094 C-102.1875 33.1875 -102.1875 33.1875 -105.1875 32.1875 C-100.62088262 29.87653347 -96.04426363 27.58716691 -91.45751953 25.31640625 C-90.01821234 24.60062259 -88.58136184 23.87985985 -87.14794922 23.15234375 C-61.36089837 10.07613601 -29.1576604 -0.5153447 0 0 Z M-75.1875 31.1875 C-74.5275 31.5175 -73.8675 31.8475 -73.1875 32.1875 C-74.1775 32.8475 -75.1675 33.5075 -76.1875 34.1875 C-75.8575 33.1975 -75.5275 32.2075 -75.1875 31.1875 Z " fill="#F6CDC2" transform="translate(198.1875,51.8125)"/>
<path d="M0 0 C0.66 0 1.32 0 2 0 C0.81043446 6.04695814 -0.84519935 11.58682854 -3.09765625 17.32421875 C-4.24658099 20.49640621 -4.24658099 20.49640621 -5 26 C-0.71 26 3.58 26 8 26 C8 26.66 8 27.32 8 28 C2.72 28 -2.56 28 -8 28 C-8.3815625 29.22074219 -8.763125 30.44148438 -9.15625 31.69921875 C-11.22545644 37.90076644 -13.85779831 43.83776011 -16.5 49.8125 C-16.98597656 50.93076172 -17.47195312 52.04902344 -17.97265625 53.20117188 C-18.68228516 54.81282227 -18.68228516 54.81282227 -19.40625 56.45703125 C-19.83228516 57.42616455 -20.25832031 58.39529785 -20.69726562 59.39379883 C-21.93462909 61.86922142 -23.16697567 63.92805844 -25 66 C-25.66 66 -26.32 66 -27 66 C-26.5193058 58.98849488 -24.36853703 53.30842069 -21.625 46.875 C-21.22539063 45.91207031 -20.82578125 44.94914062 -20.4140625 43.95703125 C-18.43150785 39.21585615 -16.37783841 34.55624522 -14 30 C-13.34 30 -12.68 30 -12 30 C-11.67 29.34 -11.34 28.68 -11 28 C-13.97 28 -16.94 28 -20 28 C-20 27.67 -20 27.34 -20 27 C-16.7 26.67 -13.4 26.34 -10 26 C-9.61328125 24.96101563 -9.2265625 23.92203125 -8.828125 22.8515625 C-5.97273778 15.198023 -3.09049634 7.56262634 0 0 Z " fill="#584A46" transform="translate(147,67)"/>
<path d="M0 0 C1.3303125 0.00773437 1.3303125 0.00773437 2.6875 0.015625 C3.574375 0.01046875 4.46125 0.0053125 5.375 0 C7.6875 0.265625 7.6875 0.265625 9.6875 2.265625 C8.87152344 2.4615625 8.05554688 2.6575 7.21484375 2.859375 C-4.13006171 5.72337725 -15.08489155 9.54727601 -26.09863281 13.48120117 C-27.83008143 14.09469306 -29.5698417 14.6847389 -31.3125 15.265625 C-30.16076645 12.79762453 -29.26466435 11.21778935 -27.3125 9.265625 C-27.6425 8.275625 -27.9725 7.285625 -28.3125 6.265625 C-26.63038727 4.19989055 -25.73991049 3.34218658 -23.07592773 2.86499023 C-22.22458252 2.85153564 -21.3732373 2.83808105 -20.49609375 2.82421875 C-19.56732422 2.79779297 -18.63855469 2.77136719 -17.68164062 2.74414062 C-16.23047852 2.72383789 -16.23047852 2.72383789 -14.75 2.703125 C-12.83185782 2.66875882 -10.91383957 2.62619379 -8.99609375 2.57421875 C-8.14587646 2.56189209 -7.29565918 2.54956543 -6.41967773 2.53686523 C-3.49890414 2.16089727 -2.98163777 0.34248542 0 0 Z " fill="#F9D9CE" transform="translate(149.3125,56.734375)"/>
<path d="M0 0 C3.10370036 2.53492269 5.16008885 5.7424992 6.7265625 9.41015625 C6.7265625 10.40015625 6.7265625 11.39015625 6.7265625 12.41015625 C6.0665625 12.41015625 5.4065625 12.41015625 4.7265625 12.41015625 C4.3140625 11.33765625 3.9015625 10.26515625 3.4765625 9.16015625 C2.0693049 5.88098053 0.53531434 3.69226712 -2.2734375 1.41015625 C-14.88545855 -2.79385077 -28.18140551 1.87835393 -39.5390625 7.46484375 C-47.49367253 11.5232455 -55.10350182 16.03557464 -62.5390625 20.9765625 C-65.43050369 22.49250381 -67.06394808 22.73227654 -70.2734375 22.41015625 C-69.9434375 20.76015625 -69.6134375 19.11015625 -69.2734375 17.41015625 C-70.2015625 18.23515625 -71.1296875 19.06015625 -72.0859375 19.91015625 C-74.8984375 22.41015625 -74.8984375 22.41015625 -78.2734375 22.41015625 C-76.3984375 17.66015625 -76.3984375 17.66015625 -75.2734375 15.41015625 C-72.60677083 15.41015625 -69.94010417 15.41015625 -67.2734375 15.41015625 C-67.2734375 17.06015625 -67.2734375 18.71015625 -67.2734375 20.41015625 C-66.31566406 19.86488281 -65.35789063 19.31960937 -64.37109375 18.7578125 C-60.01705982 16.28724652 -55.64830955 13.84360411 -51.2734375 11.41015625 C-50.53657715 10.99926758 -49.7997168 10.58837891 -49.04052734 10.16503906 C-15.08626841 -8.66063557 -15.08626841 -8.66063557 0 0 Z " fill="#454343" transform="translate(232.2734375,80.58984375)"/>
<path d="M0 0 C0.66 0.33 1.32 0.66 2 1 C1.38125 1.2475 0.7625 1.495 0.125 1.75 C-2.35068687 3.20628639 -2.95125002 4.37812506 -4 7 C-4.66 7 -5.32 7 -6 7 C-6 7.66 -6 8.32 -6 9 C-11.41176471 13 -11.41176471 13 -14 13 C-13.67 14.65 -13.34 16.3 -13 18 C-13.66 18.33 -14.32 18.66 -15 19 C-15.65555119 21.52733235 -15.65555119 21.52733235 -16 24 C-17.98 24 -19.96 24 -22 24 C-22 23.34 -22 22.68 -22 22 C-22.99 21.67 -23.98 21.34 -25 21 C-24.34 19.68 -23.68 18.36 -23 17 C-23.99 16.67 -24.98 16.34 -26 16 C-25.34 16 -24.68 16 -24 16 C-24 15.01 -24 14.02 -24 13 C-23.02675781 12.61328125 -22.05351562 12.2265625 -21.05078125 11.828125 C-15.68733823 9.53201492 -10.82750412 6.38354439 -5.87695312 3.3203125 C-5.14798828 2.87945312 -4.41902344 2.43859375 -3.66796875 1.984375 C-3.01078857 1.57928711 -2.3536084 1.17419922 -1.67651367 0.75683594 C-0.8466394 0.38220215 -0.8466394 0.38220215 0 0 Z " fill="#FCEAE4" transform="translate(187,90)"/>
<path d="M0 0 C0.76248047 -0.00386719 1.52496094 -0.00773437 2.31054688 -0.01171875 C7.93395075 -0.00177462 7.93395075 -0.00177462 10.1875 1.125 C9.90010393 4.3582058 9.6159095 5.7464626 7.140625 7.93359375 C-2.67401248 13.84790564 -12.41840059 19.19379671 -23.8125 21.125 C-22.25018306 18.00036612 -19.12457049 17.58345569 -16 16.4375 C-9.63906405 14.01664932 -3.99995608 11.13035192 1.796875 7.54296875 C4.1875 6.125 4.1875 6.125 7.1875 5.125 C7.1875 4.135 7.1875 3.145 7.1875 2.125 C-1.44714368 1.73797919 -9.41535762 2.91061717 -17.875 4.5625 C-25.84421168 6.08797376 -33.7149714 7.51125089 -41.8125 8.125 C-38.85561598 6.15374399 -37.14041566 5.59744438 -33.734375 4.87109375 C-32.73792969 4.65646484 -31.74148437 4.44183594 -30.71484375 4.22070312 C-29.15443359 3.89489258 -29.15443359 3.89489258 -27.5625 3.5625 C-26.53769531 3.34142578 -25.51289063 3.12035156 -24.45703125 2.89257812 C-16.23888163 1.14212283 -8.40514451 -0.04373883 0 0 Z " fill="#333232" transform="translate(197.8125,51.875)"/>
<path d="M0 0 C-1 2 -1 2 -2.80322266 2.68261719 C-3.97183838 2.9866748 -3.97183838 2.9866748 -5.1640625 3.296875 C-6.0307959 3.52979248 -6.8975293 3.76270996 -7.79052734 4.00268555 C-8.72590332 4.24929932 -9.6612793 4.49591309 -10.625 4.75 C-21.89886926 7.86606945 -32.39934816 11.74833211 -42.9296875 16.859375 C-43.97205566 17.36509033 -45.01442383 17.87080566 -46.08837891 18.3918457 C-48.17172905 19.41035457 -50.24972312 20.43990417 -52.32177734 21.48120117 C-53.27262207 21.95017822 -54.2234668 22.41915527 -55.203125 22.90234375 C-56.05551758 23.33023193 -56.90791016 23.75812012 -57.78613281 24.19897461 C-60 25 -60 25 -63 24 C-58.43338262 21.68903347 -53.85676363 19.39966691 -49.27001953 17.12890625 C-47.83071234 16.41312259 -46.39386184 15.69235985 -44.96044922 14.96484375 C-35.97524893 10.40859006 -26.86070976 6.72691458 -17.3125 3.5 C-16.28447266 3.149375 -15.25644531 2.79875 -14.19726562 2.4375 C-9.35813772 0.85320466 -5.16287199 -0.49253975 0 0 Z " fill="#36302F" transform="translate(156,60)"/>
<path d="M0 0 C1.20776039 3.62328117 0.71159984 4.33517242 -0.765625 7.74609375 C-1.16136719 8.66583984 -1.55710938 9.58558594 -1.96484375 10.53320312 C-2.38894531 11.49162109 -2.81304687 12.45003906 -3.25 13.4375 C-3.65863281 14.39205078 -4.06726563 15.34660156 -4.48828125 16.33007812 C-8.14689619 24.73548125 -8.14689619 24.73548125 -11 28 C-11.66 28 -12.32 28 -13 28 C-12.55919457 20.50630773 -10.19502624 13.77823324 -7 7 C-6.34 6.67 -5.68 6.34 -5 6 C-5 7.32 -5 8.64 -5 10 C-3.35 6.7 -1.7 3.4 0 0 Z " fill="#1A1A1A" transform="translate(133,105)"/>
<path d="M0 0 C0.89589844 -0.01417969 1.79179687 -0.02835938 2.71484375 -0.04296875 C5.0625 0.1875 5.0625 0.1875 7.0625 2.1875 C6.09570312 2.44144531 5.12890625 2.69539063 4.1328125 2.95703125 C-3.26430921 4.90930054 -10.62983876 6.91782639 -17.9375 9.1875 C-17.9375 7.5375 -17.9375 5.8875 -17.9375 4.1875 C-15.6275 4.5175 -13.3175 4.8475 -10.9375 5.1875 C-10.9375 4.5275 -10.9375 3.8675 -10.9375 3.1875 C-10.133125 2.878125 -9.32875 2.56875 -8.5 2.25 C-3.12764085 0.02243645 -3.12764085 0.02243645 0 0 Z " fill="#F7D2C7" transform="translate(151.9375,56.8125)"/>
<path d="M0 0 C-0.33 0.99 -0.66 1.98 -1 3 C-1.8971875 3.1546875 -1.8971875 3.1546875 -2.8125 3.3125 C-6.23050551 4.3867303 -7.16558649 7.04126854 -9 10 C-10.75 11.875 -10.75 11.875 -12 13 C-12.33 12.01 -12.66 11.02 -13 10 C-13.66 9.67 -14.32 9.34 -15 9 C-12.23647327 2.51171984 -12.23647327 2.51171984 -8.80078125 1.08984375 C-5.84640483 0.44758801 -3.02547856 0 0 0 Z " fill="#F6DAD3" transform="translate(172,57)"/>
<path d="M0 0 C0.99 0.33 1.98 0.66 3 1 C2.34 2.65 1.68 4.3 1 6 C1.66 6.33 2.32 6.66 3 7 C2.34 7.66 1.68 8.32 1 9 C-1.88148682 12.38261496 -3.35048655 15.9154905 -5 20 C-6.56919503 15.29241491 -5.77306638 11.75024269 -3.81640625 7.3203125 C-2.58432291 4.85614582 -1.31884918 2.41870126 0 0 Z " fill="#595655" transform="translate(133,97)"/>
<path d="M0 0 C0.93423645 3.01031744 1.04449911 3.86650268 0 7 C1.98 7 3.96 7 6 7 C6 7.33 6 7.66 6 8 C3.69 8 1.38 8 -1 8 C-1.309375 8.94875 -1.61875 9.8975 -1.9375 10.875 C-3 14 -3 14 -4 16 C-4.66 16 -5.32 16 -6 16 C-5.34 13.36 -4.68 10.72 -4 8 C-6.97 8 -9.94 8 -13 8 C-13 7.67 -13 7.34 -13 7 C-12.31292969 6.99742188 -11.62585938 6.99484375 -10.91796875 6.9921875 C-8.1597464 6.87380886 -5.67734829 6.68550463 -3 6 C-0.76113268 3.11320156 -0.76113268 3.11320156 0 0 Z " fill="#151211" transform="translate(140,87)"/>
<path d="M0 0 C-0.33 2.31 -0.66 4.62 -1 7 C-0.34 7 0.32 7 1 7 C0.34 8.98 -0.32 10.96 -1 13 C-1.66 12.34 -2.32 11.68 -3 11 C-2.67 10.34 -2.34 9.68 -2 9 C-2.66 9 -3.32 9 -4 9 C-4 6.69 -4 4.38 -4 2 C-4.99 1.67 -5.98 1.34 -7 1 C-4.53721199 -0.231394 -2.7204945 -0.07159196 0 0 Z M-5 12 C-4.34 12.33 -3.68 12.66 -3 13 C-3.99 13.66 -4.98 14.32 -6 15 C-5.67 14.01 -5.34 13.02 -5 12 Z " fill="#F3D9CF" transform="translate(128,71)"/>
<path d="M0 0 C-1.49836105 3.11198065 -3.19933758 6.0534615 -5 9 C-5.66 8.34 -6.32 7.68 -7 7 C-7.99 7.66 -8.98 8.32 -10 9 C-11 6 -11 6 -10.4375 3.9375 C-7.85751745 0.46013222 -4.1455453 0 0 0 Z " fill="#EDB6B2" transform="translate(159,60)"/>
<path d="M0 0 C1.26706235 3.80118706 0.57172296 5.3850372 -1 9 C-1.99 9.33 -2.98 9.66 -4 10 C-5.65 8.02 -7.3 6.04 -9 4 C-7.88625 3.525625 -6.7725 3.05125 -5.625 2.5625 C-3.73289006 1.74693537 -1.84287291 0.92143645 0 0 Z " fill="#F1C9BD" transform="translate(172,99)"/>
<path d="M0 0 C2.66666667 0 5.33333333 0 8 0 C7.67 1.98 7.34 3.96 7 6 C7.66 6.33 8.32 6.66 9 7 C7.68 7 6.36 7 5 7 C5.33 5.35 5.66 3.7 6 2 C5.071875 2.825 4.14375 3.65 3.1875 4.5 C0.375 7 0.375 7 -3 7 C-1.125 2.25 -1.125 2.25 0 0 Z " fill="#181413" transform="translate(157,96)"/>
<path d="M0 0 C1.33332095 2.6666419 0.67102033 4.16680303 0 7 C1.32 7.33 2.64 7.66 4 8 C4.33 9.32 4.66 10.64 5 12 C4.34 11.67 3.68 11.34 3 11 C3 10.34 3 9.68 3 9 C0.03 9 -2.94 9 -6 9 C-5.34 8.01 -4.68 7.02 -4 6 C-3.34 6 -2.68 6 -2 6 C-1.855625 5.195625 -1.71125 4.39125 -1.5625 3.5625 C-1 1 -1 1 0 0 Z " fill="#FDECE6" transform="translate(162,67)"/>
<path d="M0 0 C2.29160319 -0.02692484 4.58329546 -0.04636124 6.875 -0.0625 C8.15117187 -0.07410156 9.42734375 -0.08570313 10.7421875 -0.09765625 C14 0 14 0 16 1 C15.67 2.65 15.34 4.3 15 6 C13.68 6 12.36 6 11 6 C11.66 5.67 12.32 5.34 13 5 C13 4.01 13 3.02 13 2 C8.71 1.67 4.42 1.34 0 1 C0 0.67 0 0.34 0 0 Z " fill="#242424" transform="translate(192,52)"/>
<path d="M0 0 C2.62187494 1.04874998 3.79371361 1.64931313 5.25 4.125 C5.4975 4.74375 5.745 5.3625 6 6 C4.1875 7.0625 4.1875 7.0625 2 8 C1.01 7.67 0.02 7.34 -1 7 C-0.34 5.68 0.32 4.36 1 3 C0.01 2.67 -0.98 2.34 -2 2 C-1.34 2 -0.68 2 0 2 C0 1.34 0 0.68 0 0 Z " fill="#FBDBD0" transform="translate(163,104)"/>
<path d="M0 0 C1.32830615 3.98491845 0.23204404 5.40048548 -1.4375 9.1875 C-1.91058594 10.27417969 -2.38367188 11.36085938 -2.87109375 12.48046875 C-3.42990234 13.72763672 -3.42990234 13.72763672 -4 15 C-4.66 14.01 -5.32 13.02 -6 12 C-4.02 8.04 -2.04 4.08 0 0 Z " fill="#151414" transform="translate(133,105)"/>
<path d="M0 0 C-0.66 0 -1.32 0 -2 0 C-2.33 0.99 -2.66 1.98 -3 3 C-5.64 2.67 -8.28 2.34 -11 2 C-9 -1 -9 -1 -6.625 -1.8125 C-3.70744102 -2.02089707 -2.4404341 -1.53656962 0 0 Z " fill="#FBDED8" transform="translate(160,55)"/>
<path d="M0 0 C0.66 0.33 1.32 0.66 2 1 C1.38125 1.2475 0.7625 1.495 0.125 1.75 C-2.35068687 3.20628639 -2.95125002 4.37812506 -4 7 C-4.66 7 -5.32 7 -6 7 C-6 7.66 -6 8.32 -6 9 C-7.32 9.33 -8.64 9.66 -10 10 C-4.75374732 2.05567452 -4.75374732 2.05567452 0 0 Z " fill="#FAEFEB" transform="translate(187,90)"/>
<path d="M0 0 C1.98 0.495 1.98 0.495 4 1 C3.67 2.65 3.34 4.3 3 6 C1.68 5.67 0.36 5.34 -1 5 C-0.67 3.35 -0.34 1.7 0 0 Z " fill="#BABABA" transform="translate(144,141)"/>
<path d="M0 0 C1.98 0.495 1.98 0.495 4 1 C3.67 2.65 3.34 4.3 3 6 C1.68 5.67 0.36 5.34 -1 5 C-0.67 3.35 -0.34 1.7 0 0 Z " fill="#BEBEBE" transform="translate(87,141)"/>
<path d="M0 0 C0.66 0 1.32 0 2 0 C2 1.65 2 3.3 2 5 C-2.62 5 -7.24 5 -12 5 C-12 4.67 -12 4.34 -12 4 C-11.38511719 3.96261719 -10.77023438 3.92523438 -10.13671875 3.88671875 C-9.32847656 3.82097656 -8.52023438 3.75523438 -7.6875 3.6875 C-6.88699219 3.62949219 -6.08648437 3.57148437 -5.26171875 3.51171875 C-2.61257517 2.9123443 -1.79526159 1.96373189 0 0 Z " fill="#FDEDE7" transform="translate(138,55)"/>
<path d="M0 0 C0.66 0.33 1.32 0.66 2 1 C-2.43076923 6.78461538 -2.43076923 6.78461538 -5.3125 7.875 C-5.869375 7.91625 -6.42625 7.9575 -7 8 C-6.875 6.25 -6.875 6.25 -6 4 C-2.9375 1.75 -2.9375 1.75 0 0 Z " fill="#F5E0D8" transform="translate(180,94)"/>
<path d="M0 0 C0.33 0.66 0.66 1.32 1 2 C1.66 2 2.32 2 3 2 C2.34 3.98 1.68 5.96 1 8 C0.34 7.34 -0.32 6.68 -1 6 C-0.67 5.34 -0.34 4.68 0 4 C-0.66 3.67 -1.32 3.34 -2 3 C-1.34 2.01 -0.68 1.02 0 0 Z M-3 7 C-2.34 7.33 -1.68 7.66 -1 8 C-1.99 8.66 -2.98 9.32 -4 10 C-3.67 9.01 -3.34 8.02 -3 7 Z " fill="#FCE1D7" transform="translate(126,76)"/>
<path d="M0 0 C0.66 0.33 1.32 0.66 2 1 C1.67 2.65 1.34 4.3 1 6 C-0.98 6.66 -2.96 7.32 -5 8 C-3.35 5.36 -1.7 2.72 0 0 Z " fill="#FDEEEA" transform="translate(168,59)"/>
<path d="M0 0 C0.99 0.33 1.98 0.66 3 1 C2.67 2.65 2.34 4.3 2 6 C0.68 5.67 -0.64 5.34 -2 5 C-1.125 1.125 -1.125 1.125 0 0 Z " fill="#B7B7B7" transform="translate(168,149)"/>
<path d="M0 0 C0.99 0 1.98 0 3 0 C3.33 1.65 3.66 3.3 4 5 C2.68 5.33 1.36 5.66 0 6 C-0.38218767 4.34385343 -0.71395102 2.67542976 -1 1 C-0.67 0.67 -0.34 0.34 0 0 Z " fill="#B5B5B5" transform="translate(203,141)"/>
<path d="M0 0 C0.66 0 1.32 0 2 0 C1.71640113 1.4391134 1.42278601 2.87625518 1.125 4.3125 C0.88136719 5.51326172 0.88136719 5.51326172 0.6328125 6.73828125 C0 9 0 9 -2 12 C-3.15957207 8.52128379 -2.77456651 7.65780355 -1.5625 4.3125 C-1.13130859 3.10013672 -1.13130859 3.10013672 -0.69140625 1.86328125 C-0.46324219 1.24839844 -0.23507813 0.63351563 0 0 Z " fill="#171313" transform="translate(147,67)"/>
<path d="M0 0 C1.32 0.99 2.64 1.98 4 3 C3.67 3.99 3.34 4.98 3 6 C1.68 6 0.36 6 -1 6 C-1.042721 4.33388095 -1.04063832 2.66617115 -1 1 C-0.67 0.67 -0.34 0.34 0 0 Z " fill="#A4A4A4" transform="translate(111,149)"/>
<path d="M0 0 C-1.3125 2 -1.3125 2 -3 4 C-3.99 4 -4.98 4 -6 4 C-6.33 4.66 -6.66 5.32 -7 6 C-7.33 5.01 -7.66 4.02 -8 3 C-5.53387212 -0.1151089 -3.89156016 -0.31553191 0 0 Z " fill="#FBE1D9" transform="translate(129,60)"/>
<path d="M0 0 C2.875 -0.125 2.875 -0.125 6 0 C6.66 0.66 7.32 1.32 8 2 C3.545 2.495 3.545 2.495 -1 3 C-0.67 2.01 -0.34 1.02 0 0 Z " fill="#E3B4AF" transform="translate(151,57)"/>
<path d="M0 0 C-1.0625 1.5 -1.0625 1.5 -3 3 C-6.6875 3.1875 -6.6875 3.1875 -10 3 C-9 1 -9 1 -6.6875 -0.1875 C-3.88010429 -1.03624754 -2.698065 -0.99928333 0 0 Z " fill="#FDF0ED" transform="translate(164,51)"/>
<path d="M0 0 C2.92879371 0.62759865 5.36095629 1.58622659 8 3 C5.36 3.66 2.72 4.32 0 5 C0 3.35 0 1.7 0 0 Z " fill="#E5B8B0" transform="translate(134,61)"/>
<path d="M0 0 C0.99 0.33 1.98 0.66 3 1 C3.33 1.99 3.66 2.98 4 4 C1.69 4.33 -0.62 4.66 -3 5 C-1.125 1.125 -1.125 1.125 0 0 Z " fill="#F6E8E2" transform="translate(172,51)"/>
<path d="M0 0 C1.98 0 3.96 0 6 0 C6 1.32 6 2.64 6 4 C5.38125 3.814375 4.7625 3.62875 4.125 3.4375 C1.95839822 2.76313824 1.95839822 2.76313824 0 4 C0 2.68 0 1.36 0 0 Z " fill="#9E9E9E" transform="translate(127,142)"/>
<path d="M0 0 C1.32 0.33 2.64 0.66 4 1 C2.25 4.875 2.25 4.875 0 6 C0 4.02 0 2.04 0 0 Z " fill="#9F9F9F" transform="translate(137,149)"/>
</svg>
